<?xml version="1.0" encoding="utf-8"?>
<!-- Generator: Adobe Illustrator 18.1.1, SVG Export Plug-In . SVG Version: 6.00 Build 0)  -->
<svg version="1.1" id="Layer_1" xmlns="http://www.w3.org/2000/svg" xmlns:xlink="http://www.w3.org/1999/xlink" x="0px" y="0px"
	 viewBox="0 0 1024 730" enable-background="new 0 0 1024 730" xml:space="preserve">
<line display="none" fill="none" stroke="#000000" stroke-miterlimit="10" x1="189.2" y1="405.5" x2="189.1" y2="405.6"/>
<line display="none" fill="none" stroke="#000000" stroke-miterlimit="10" x1="189.1" y1="405.6" x2="189.1" y2="405.6"/>
<g display="none">
	<g display="inline">
		<linearGradient id="SVGID_1_" gradientUnits="userSpaceOnUse" x1="72.1164" y1="102.9077" x2="190.6635" y2="102.9077">
			<stop  offset="0" style="stop-color:#63E2FF"/>
			<stop  offset="1" style="stop-color:#B066FE"/>
		</linearGradient>
		<path fill="url(#SVGID_1_)" d="M166.8,78.6c-9,9.3-21.6,15.1-35.6,15.1c-13.8,0-26.3-5.7-35.3-14.8l-23.9,23.4
			c15,15.3,36,24.8,59.1,24.8c23.3,0,44.4-9.6,59.4-25.1L166.8,78.6z"/>
		<linearGradient id="SVGID_2_" gradientUnits="userSpaceOnUse" x1="95.9732" y1="58.027" x2="166.8011" y2="58.027">
			<stop  offset="0" style="stop-color:#63E2FF"/>
			<stop  offset="1" style="stop-color:#B066FE"/>
		</linearGradient>
		<path fill="url(#SVGID_2_)" d="M166.8,67.8l-35.3-34.6L96,68.1c9,9.1,21.5,14.8,35.3,14.8C145.2,82.9,157.8,77.1,166.8,67.8z"/>
	</g>
	<g display="inline">
		<linearGradient id="SVGID_3_" gradientUnits="userSpaceOnUse" x1="74.9977" y1="149.1128" x2="195.9977" y2="150.1128">
			<stop  offset="0" style="stop-color:#63E2FF"/>
			<stop  offset="1" style="stop-color:#B066FE"/>
		</linearGradient>
		<path fill="url(#SVGID_3_)" d="M95.3,157.5c-1.9,0-3.6-0.5-5.1-1.4s-2.2-2-2.2-3.2v-11.4c0-1.5,1-2.5,2-3.1V138H75.5
			c0.2,0,0.2,0.2,0,0.5c1.4,0.7,2.3,1.4,2.8,2.3c0.5,0.8,0.8,1.9,0.8,3.3c0,1-0.3,1.9-0.9,2.9c-0.8,1.3-1.9,1.9-3.3,1.9v0.4
			c0.8,0,1.5,0.3,2.3,0.8c0.7,0.5,1.1,1.1,1.3,1.7c0.9,2.5,2.6,4.6,5.1,6.3c2.5,1.7,5.5,2.5,8.8,2.5c0.8,0,2.2-0.3,4.3-0.9
			s3.4-0.9,3.8-0.9c0.9,0,1.7,0.2,2.5,0.6l4.4-4.6l-0.4-0.5C102.1,156.4,98.1,157.5,95.3,157.5z"/>
		<linearGradient id="SVGID_4_" gradientUnits="userSpaceOnUse" x1="75.0135" y1="148.3697" x2="196.0135" y2="149.3697">
			<stop  offset="0" style="stop-color:#63E2FF"/>
			<stop  offset="1" style="stop-color:#B066FE"/>
		</linearGradient>
		<path fill="url(#SVGID_4_)" d="M192.8,148c-0.7-0.5-1.2-1.1-1.4-1.7c-0.9-2.5-2.5-4.6-5-6.3c-2.6-1.7-5.5-2.5-8.8-2.5
			c-3.3,0-6.2,0.8-8.8,2.5c-2.5,1.7-4.2,3.8-5.1,6.3c-0.2,0.6-0.7,1.2-1.4,1.7c-0.7,0.5-1.3,0.8-2.3,0.8v0c-1,0-2.6-0.8-3.5-2.5
			c-1.4-2.4-3.6-4.5-6.7-6.3c-1.3-0.8-2.7-1.5-4.3-2.1l-0.1,0.2c2.8,4,4.2,7.7,4.2,10.9c0,2.6-0.7,4.8-2,6.6
			c-1.3,1.8-2.9,2.7-4.9,2.7c-1.7,0-3.2-0.5-4.4-1.4c-1.4-1.1-2.1-2.6-2.1-4.5c0-0.9,0.5-1.6,1.3-2.3c0.7-0.6,1.5-1,2.5-1v-0.4
			c-1,0-1.6-0.3-2.2-0.8c-0.4-0.3-0.9-0.9-1.6-1.8c-0.7-1-1.5-2.6-2.3-5c-0.4-1-0.7-2.2-1.1-3.2H132c-1.3,4-2.3,7.2-3.2,8.3
			c-0.7,0.9-1.3,1.4-1.6,1.7c-0.6,0.5-1.2,0.7-2.2,0.7v0.4c1,0,1.8,0.3,2.6,0.9c0.8,0.6,1.2,1.4,1.2,2.3c0,1.9-0.7,3.4-2,4.5
			c-1.2,0.9-2.6,1.4-4.3,1.4c-1.9,0-3.5-0.9-4.8-2.7c-1.3-1.8-2-4-2-6.6c0-3.2,1.4-6.8,4.2-10.9l-0.1-0.2c-5.1,2-8.8,4.8-11,8.4
			c-1,1.7-2.6,2.5-3.6,2.5v0.4c1,0,1.5,0.3,2.3,0.8c0.7,0.5,1.1,1.1,1.3,1.7c0.9,2.5,2.5,4.6,5.1,6.3c2.5,1.7,5.4,2.5,8.8,2.5
			c3.9,0,7.3-1.2,10.1-3.5c2.8,2.4,6.2,3.5,10.1,3.5c3.3,0,6.2-0.8,8.8-2.5c2.5-1.6,4.2-3.7,5-6.3c0.2-0.6,0.6-1.2,1.3-1.7
			c0.7-0.5,1.2-0.8,2.2-0.8v0c1,0,2.6,0.8,3.7,2.5c1.4,2.1,3.7,4.2,7,6.3c1.3,0.9,2.8,1.7,4.4,2.4l0.1-0.2c-2.8-2.7-4.1-5.4-4.1-8.1
			c0-0.6,0.6-1.1,1.9-1.5c1.1-0.3,2.5-0.5,4.2-0.5c1.8,0,3.3,0.2,4.6,0.5c1.4,0.3,2.1,0.7,2.1,1.2c0,2.7-1.4,5.5-4.2,8.6l0.1,0.2
			c5.5-2.7,9.3-5.7,11.4-8.9c1.1-1.7,2.6-2.5,3.6-2.5v-0.4C194,148.8,193.5,148.6,192.8,148z M181.9,148.3c-1.4,0.3-3.1,0.4-5,0.4
			c-4.1,0-6.1-0.5-6.1-1.6c0-2.4,0.7-4.3,2-5.6c1.2-1.2,2.8-1.8,4.7-1.8s3.5,0.6,4.7,1.8c1.3,1.3,2,3.2,2,5.7
			C184.2,147.6,183.4,147.9,181.9,148.3z"/>
	</g>
</g>
<g display="none">
	<linearGradient id="SVGID_5_" gradientUnits="userSpaceOnUse" x1="53.6221" y1="272.335" x2="315.6479" y2="272.335">
		<stop  offset="0" style="stop-color:#FF5B9D"/>
		<stop  offset="0.9997" style="stop-color:#7C0EFF"/>
	</linearGradient>
	<path display="inline" fill="url(#SVGID_5_)" d="M315.6,291.9c0,35.5-14.1,67.7-37.1,91.3l-37.7-37c13.6-14.1,22-33.2,22-54.3
		c0-43.2-35-78.2-78.2-78.2s-78.2,35-78.2,78.2c0,21.3,8.5,40.7,22.4,54.8l-37.7,37c-23.2-23.6-37.6-56.1-37.6-91.8
		c0-72.4,58.7-131,131-131C257,160.9,315.6,219.6,315.6,291.9z"/>
	<g display="inline">
		<linearGradient id="SVGID_6_" gradientUnits="userSpaceOnUse" x1="114.9977" y1="306.0793" x2="255.634" y2="307.2415">
			<stop  offset="0" style="stop-color:#FF5B9D"/>
			<stop  offset="0.9997" style="stop-color:#7C0EFF"/>
		</linearGradient>
		<path fill="url(#SVGID_6_)" d="M138.4,316c-2.2,0-4.1-0.6-5.9-1.7c-1.8-1.1-2.5-2.3-2.5-3.7v-13.3c0-1.7,1-3,2-3.7V293h-16.7
			c0.2,0,0.2,0.3,0,0.6c1.6,0.8,2.7,1.7,3.3,2.7c0.6,1,0.9,2.3,0.9,3.9c0,1.1-0.2,2.3-0.9,3.4c-0.9,1.5-2.7,2.2-3.7,2.2v0.4
			c1,0,1.7,0.3,2.5,0.9c0.8,0.6,1.2,1.3,1.5,2c1,3,2.9,5.4,5.9,7.4c3,2,6.4,2.9,10.2,2.9c0.9,0,2.6-0.4,5.1-1.1
			c2.5-0.7,4-1.1,4.5-1.1c1.1,0,2,0.2,3,0.7l5.1-5.4l-0.5-0.6C146.4,314.6,141.8,316,138.4,316z"/>
		<linearGradient id="SVGID_7_" gradientUnits="userSpaceOnUse" x1="115.0157" y1="305.2597" x2="256.1824" y2="306.4263">
			<stop  offset="0" style="stop-color:#FF5B9D"/>
			<stop  offset="0.9997" style="stop-color:#7C0EFF"/>
		</linearGradient>
		<path fill="url(#SVGID_7_)" d="M252.5,304.9c-0.8-0.6-1.3-1.3-1.5-2c-1-3-2.9-5.4-5.9-7.4c-3-2-6.4-3-10.3-3
			c-3.9,0-7.3,1-10.3,2.9c-3,1.9-5,4.4-6,7.4c-0.3,0.8-1,1.4-1.8,2c-0.9,0.6-1.9,1-2.9,1v0c-1,0-2.9-1-4-2.9
			c-1.6-2.8-4.1-5.2-7.8-7.4c-1.5-0.9-3.2-1.7-5-2.4l-0.1,0.2c3.3,4.7,4.9,9,4.9,12.7c0,3-0.8,5.6-2.3,7.7c-1.6,2.1-3.5,3.2-5.7,3.2
			c-2,0-3.7-0.5-5.1-1.6c-1.6-1.3-2.5-3-2.5-5.2c0-1,0.7-1.9,1.6-2.7c0.9-0.8,2-1.1,3-1.1v-0.4c-1,0-1.9-0.3-2.6-1
			c-0.4-0.4-1.1-1.1-1.9-2.1c-0.9-1.1-1.8-3.1-2.8-5.9c-0.4-1.2-0.9-2.8-1.3-3.8h-0.9c-1.5,5-2.7,8.5-3.8,9.8c-0.8,1-1.7,1.7-2.1,2
			c-0.8,0.6-1.7,0.9-2.7,0.9v0.4c1,0,2.3,0.4,3.2,1.1c0.9,0.7,1.5,1.6,1.5,2.7c0,2.2-0.7,4-2.4,5.2c-1.4,1.1-3.1,1.6-5.1,1.6
			c-2.2,0-4.1-1.1-5.7-3.2c-1.6-2.1-2.3-4.7-2.3-7.7c0-3.7,1.6-8,4.9-12.7l-0.2-0.2c-6,2.3-10.2,5.6-12.8,9.8
			c-1.2,2-3.1,2.9-4.1,2.9v0.4c1,0,1.7,0.3,2.6,1c0.8,0.6,1.2,1.3,1.5,2c1,3,3,5.4,5.9,7.4c3,2,6.4,2.9,10.2,2.9
			c4.6,0,8.6-1.4,11.9-4.1c3.3,2.8,7.2,4.1,11.9,4.1c3.8,0,7.3-1,10.3-3c2.9-1.9,4.9-4.4,5.9-7.4c0.3-0.8,0.6-1.4,1.4-2
			c0.8-0.6,1.4-0.9,2.4-0.9v0c1,0,3.2,1,4.4,2.9c1.6,2.5,4.5,5,8.3,7.4c1.6,1,3.3,1.9,5.2,2.8l0.2-0.2c-3.2-3.2-4.8-6.4-4.8-9.5
			c0-0.7,0.7-1.3,2.2-1.7c1.3-0.4,3-0.5,5-0.5c2.1,0,3.9,0.2,5.4,0.5c1.7,0.4,2.5,0.9,2.5,1.4c0,3.1-1.6,6.5-4.9,10l0.2,0.2
			c6.5-3.2,10.8-6.7,13.2-10.4c1.3-2,3.1-2.9,4.1-2.9v-0.4C254,305.8,253.3,305.5,252.5,304.9z M240,305.1c-1.7,0.3-3.6,0.5-5.8,0.5
			c-4.8,0-7.1-0.6-7.1-1.8c0-2.9,0.8-5.1,2.3-6.6c1.4-1.4,3.2-2.1,5.5-2.1s4.1,0.7,5.5,2.1c1.5,1.5,2.3,3.8,2.3,6.6
			C242.6,304.3,241.8,304.8,240,305.1z"/>
	</g>
</g>
<linearGradient id="SVGID_8_" gradientUnits="userSpaceOnUse" x1="3" y1="365.724" x2="1020.3816" y2="365.724">
	<stop  offset="0" style="stop-color:#63E2FF"/>
	<stop  offset="1" style="stop-color:#B066FE"/>
</linearGradient>
<path fill="url(#SVGID_8_)" d="M1020.4,500.3C1013.7,239,800.8,23.9,539.8,9.8C248.5-6,3,225.6,3,513.5v4.1
	C3,700,229.9,790.5,360.1,662.6l11.5-9.1c80.7-79.2,211.1-79.2,291.7,0l5.2,4.5c131.6,129.2,353.8,34.4,351.8-150
	C1020.2,505.4,1020.4,502.9,1020.4,500.3z M267,507.4l-37-33.5V304.7c0-8.9,3.7-17.5,3.2-25.8c-0.5-6.9,0.5-13.8-0.6-20.7
	c-1-6.9-1.3-12.4-3.1-16.5c-1-2-1.4-3.7-2.3-5c-0.9-1.3-1.5-2.4-2.2-3.4c-1-1-1.7-2-2.2-3.1l2.8-5.4c3.8,1.5,8,3.6,12.3,6.1
	c3.6,2.3,7.4,5.3,11.6,8.9c4.1,3.6,7.9,8.3,11.5,14.2c4.1,7.5,4.2,15.1,5.9,22.9c1.6,7.8,0.1,17.1,0.1,27.8V507.4z M736.3,359.2
	c5.6,3,13,6.3,17.3,10c4.2,3.7,3.9,7.7,6.4,12.1c2.4,4.4,0.1,8.7,0.1,13.1v113.4L733.9,484c-4.6,4.6-8.3,8.9-15.7,12.7
	c-7.5,3.8-14.3,6.9-23.1,9c-8.7,2.2-17.2,3.4-26.5,3.7c-9.4,0.2-18-0.8-26.5-3.1c-8.4-2.3-16-6-22.9-11.1
	c-6.9-5.1-12.2-11.9-16.1-20.4c-4.4-9-5.7-17.9-4-26.9c1.7-9,5.4-17.1,11.1-24.4c5.8-7.3,13.4-13.3,22.7-18.1
	c9.4-4.7,19.6-7.4,30.7-8c11.2-0.6,18.6,1.2,30.7,5.4c12.2,4.3,19.6,11.6,31.6,22.1v-30c0-7.5,0.4-13.2-7.7-17.1
	c-8-4-15.6-4.9-27.1-2.9c-8.2,1.3-13.7,2.4-18.5,3.4c-4.9,1-9,2.3-13.3,3.7s-8.8,3.1-14,5.2c-5.1,2-11.9,4.7-20.6,8.1l-8.4-19.2
	c8.7-3.6,17.4-7,25.8-10.4c7.5-2.8,15.4-5.6,23.7-8.4c8.3-2.8,16.1-5,23.1-6.5c0.5-0.2-2.3-0.4-1.7-0.4c0.6,0-1.3-0.1-1.3-0.3V346
	H348.7c2.3,7,5.2,12.1,8.6,23c3.4,10.9,7.1,20.6,11,32c3.8,11.4,7.6,21.2,11.2,31.6c3.6,10.4,6.5,18,8.8,23.9c1.8,4.7,3.8,6.7,6,6.7
	c2.2,0,5.2-2.9,9-8.6c2.6-3.8,5-8.9,7.3-14.9c2.3-6.1,4.5-12.4,6.8-19.1c2.2-6.6,4.2-13.2,6.1-19.7c1.9-6.4,3.9-11.9,6-16.5
	c1.3-3.3,2.7-6.4,4.2-9c1.6-2.7,3.4-4.4,5.6-5c2.2-0.6,4.7,0.2,7.7,2.5c2.9,2.3,6.4,6.9,10.4,13.8c4,6.9,8.6,16.5,13.9,28.8
	c5.2,12.3,11.3,28.2,18.2,47.7c0.8,2.3,1.9,3.5,3.5,3.6c1.5,0.2,3.1-0.5,4.8-1.9c1.7-1.4,3.3-3.4,5-5.9c1.6-2.6,3.1-5.4,4.4-8.4
	c2.3-5.4,4.5-12,6.7-19.8c2.2-7.8,4.1-16,5.8-24.6c1.7-8.6,3.2-17.4,4.7-26.4c1.4-8.9,2.7-17.5,4-25.8l14.6,11.9
	c1,1,1.6,4.4,1.7,10.2c0.1,5.8-0.3,12.7-1.3,20.7c-1,8.1-2.5,17-4.4,26.7c-1.9,9.7-4.2,19.2-6.9,28.3c-2.7,9.1-5.7,17.5-9.2,25.4
	c-3.4,7.8-7.2,13.7-11.4,17.9c-9,9.2-17.7,13.3-26.1,12.3c-8.5-1-14.9-6.4-19.2-16.1c-4.7-10.8-8.9-22.3-12.9-34.4
	c-4-12.2-8.7-26.5-14-42.9c-1.3,6.4-2.9,13-4.8,19.8c-1.9,6.8-4.1,13.5-6.5,20.2c-2.4,6.7-5.1,13.1-8.1,19.2
	c-2.9,6.2-6.2,11.7-9.8,16.5c-3.8,5.4-7.9,9.4-12.1,11.9c-4.3,2.6-8.3,3.8-12.3,3.8c-4,0-7.7-1.2-11.1-3.7c-3.5-2.4-6.2-6.1-8.3-11
	c-4.1-9.7-8.7-21.8-13.9-36c-5.1-14.3-10.2-28.9-15.2-43.6c-5-14.7-9.7-24.6-14-37.7c-4.3-13.1-7.7-13.4-10-27.4h-16.5l-19.2-34h511
	l19.2,34H714v6C720,353.9,730.7,356.2,736.3,359.2z M672.5,425.5c-9.5,0.2-17.7,2.5-24.6,6.7c-6.9,4.3-11.2,10.5-13.1,18.6
	c-2,9-1.6,16.1,1.5,21.2c3.1,5.1,7.6,8.7,13.6,10.7c6.1,2.1,13.1,2.9,21.1,2.3c8-0.5,16.1-1.9,24.2-4.3c8-2.3,11.3-5.1,18.4-8.4
	c7-3.3,6.3-6.8,12.3-10.4v-14.2c-12-7.7-16.1-13.4-27.1-17.1C687.9,427,682,425.3,672.5,425.5z"/>
<path display="none" fill="#E20000" d="M562.1,676.7c-3.5-137.1-114.9-250-251.8-257.4C157.4,411,29,532.6,29,683.6v2.1
	c0,95.8,118.7,143.2,187,76.1l5.8-4.8c42.3-41.6,110.7-41.6,153,0l2.7,2.4c69.1,67.8,185.6,18.1,184.6-78.7
	C562.1,679.4,562.1,678.1,562.1,676.7z M167,680.5l-19-17.6v-88.8c0-4.7,1.6-9.2,1.4-13.5c-0.3-3.6,0.1-7.2-0.5-10.9
	c-0.6-3.6-0.8-6.5-1.7-8.7c-0.5-1.1-0.8-2-1.2-2.6c-0.5-0.7-0.8-1.3-1.2-1.8c-0.6-0.6-0.9-1.1-1.2-1.6l1.5-2.8
	c2,0.8,4.2,1.9,6.5,3.2c1.9,1.2,3.9,2.8,6.1,4.6c2.1,1.9,4.2,4.4,6.1,7.5c2.1,3.9,2.3,7.9,3.2,12c0.9,4.1,0.2,9,0.2,14.6V680.5z
	 M413.4,602.7c2.9,1.6,6.7,3.3,8.9,5.3c2.2,2,2.2,4.1,3.5,6.4s0.2,4.6,0.2,6.8v59.5l-13.9-12.5c-2.4,2.4-4.5,4.6-8.4,6.7
	c-3.9,2-7.6,3.6-12.2,4.7s-9.1,1.8-13.9,1.9c-4.9,0.1-9.5-0.4-13.9-1.6c-4.4-1.2-8.4-3.1-12-5.8c-3.6-2.7-6.4-6.3-8.4-10.7
	c-2.3-4.7-3-9.4-2.1-14.1c0.9-4.7,2.8-9,5.8-12.8c3-3.9,7-7,11.9-9.5c4.9-2.5,10.3-3.9,16.1-4.2c5.9-0.3,9.9,0.6,16.3,2.8
	c6.4,2.2,10.7,6.1,16.7,11.6v-15.7c0-3.9,0-6.9-4.2-9c-4.2-2.1-8.3-2.6-14.3-1.5c-4.3,0.7-7.2,1.3-9.8,1.8c-2.6,0.6-4.7,1.2-7,1.9
	s-4.6,1.7-7.3,2.7c-2.7,1.1-6.3,2.5-10.8,4.2l-4.4-10.1c4.6-1.9,9.1-3.7,13.6-5.5c3.9-1.5,8.1-2.9,12.5-4.4
	c4.4-1.5,8.5-2.6,12.1-3.4c0.3-0.1-1-0.2-0.7-0.2c0.3,0-0.5-0.1-0.5-0.2V596H209.7c1.2,3,2.7,6.2,4.5,12c1.8,5.7,3.7,10.7,5.7,16.7
	c2,6,4,11.1,5.9,16.5c1.9,5.4,3.4,9.4,4.6,12.5c0.9,2.4,2,3.5,3.1,3.5c1.1,0,2.7-1.5,4.7-4.5c1.3-2,2.6-4.7,3.8-7.8
	c1.2-3.2,2.4-6.5,3.5-10c1.1-3.5,2.2-6.9,3.2-10.3c1-3.3,2-6.2,3.1-8.7c0.7-1.7,1.4-3.3,2.2-4.7c0.8-1.4,1.8-2.3,2.9-2.6
	c1.1-0.3,2.5,0.1,4,1.3c1.5,1.2,3.4,3.6,5.4,7.2s4.5,8.7,7.3,15.1c2.8,6.5,5.9,14.8,9.6,25c0.4,1.2,1,1.8,1.8,1.9
	c0.8,0.1,1.6-0.2,2.5-1c0.9-0.7,1.7-1.8,2.6-3.1c0.9-1.3,1.7-2.8,2.3-4.4c1.2-2.8,2.4-6.3,3.5-10.4c1.2-4.1,2.2-8.4,3-12.9
	c0.9-4.5,1.7-9.1,2.4-13.8c0.7-4.7,1.4-9.2,2.1-13.5l7.7,6.3c0.5,0.6,0.8,2.3,0.9,5.4c0.1,3-0.2,6.7-0.7,10.9
	c-0.5,4.2-1.3,8.9-2.3,14c-1,5.1-2.2,10.1-3.6,14.8c-1.4,4.8-3,9.2-4.8,13.3c-1.8,4.1-3.8,7.2-6,9.4c-4.7,4.8-9.3,7-13.7,6.5
	c-4.5-0.6-7.8-3.4-10.1-8.5c-2.4-5.7-4.7-11.7-6.8-18.1c-2.1-6.4-4.6-13.9-7.4-22.5c-0.7,3.4-1.5,6.8-2.5,10.4
	c-1,3.5-2.1,7.1-3.4,10.6c-1.3,3.5-2.7,6.9-4.2,10.1c-1.5,3.2-3.2,6.1-5.1,8.7c-2,2.8-4.1,4.9-6.4,6.2c-2.2,1.4-4.4,2-6.5,2
	c-2.1,0-4-0.6-5.8-1.9c-1.8-1.3-3.3-3.2-4.3-5.8c-2.2-5.1-4.6-11.4-7.3-18.9c-2.7-7.5-5.4-15.2-8-22.9c-2.6-7.7-5.1-12.8-7.4-19.7
	c-2.3-6.8-4-7.3-5.2-14.3h-8.7l-10.1-18h268.1l10.1,18H402v2.9C405,599.9,410.4,601.1,413.4,602.7z M379.6,637.5
	c-5,0.1-9.3,1.3-12.9,3.5c-3.6,2.2-5.9,5.5-6.8,9.8c-1.1,4.7-0.8,8.4,0.8,11.1c1.6,2.7,4,4.6,7.2,5.6c3.2,1.1,6.8,1.5,11.1,1.2
	c4.2-0.3,8.4-1,12.7-2.2c4.2-1.2,6.1-2.7,9.8-4.4c3.7-1.7,3.6-3.5,6.6-5.4v-7.5c-6-4-8.6-7-14.4-9
	C387.8,638.2,384.6,637.4,379.6,637.5z"/>
</svg>
