<?xml version="1.0" encoding="utf-8"?>
<!-- Generator: Adobe Illustrator 21.0.2, SVG Export Plug-In . SVG Version: 6.00 Build 0)  -->
<svg version="1.1" id="Layer_1" xmlns="http://www.w3.org/2000/svg" xmlns:xlink="http://www.w3.org/1999/xlink" x="0px" y="0px"
	 viewBox="0 0 945 1200" style="enable-background:new 0 0 945 1200;" xml:space="preserve">
<style type="text/css">
	.st0{display:none;fill:url(#SVGID_1_);}
	.st1{fill:url(#SVGID_2_);}
	.st2{fill:url(#SVGID_3_);}
	.st3{fill:url(#SVGID_4_);}
	.st4{fill:url(#SVGID_5_);}
</style>
<linearGradient id="SVGID_1_" gradientUnits="userSpaceOnUse" x1="-230.52" y1="532.83" x2="-101.65" y2="532.83">
	<stop  offset="0" style="stop-color:#FF5B9D"/>
	<stop  offset="0.9997" style="stop-color:#7C0EFF"/>
</linearGradient>
<path class="st0" d="M-101.7,452.2l-21.5-12.4l-21.5-12.4l-21.5-12.4l-21.5,12.4h0l-21.5,12.4l-21.5,12.4v173.6h0l0,0v24.8h0
	l21.5-12.4v-74.4h0l21.5-12.4l21.5-12.4h0l21.5,12.4h0l21.5,12.4v74.4l21.5,12.4L-101.7,452.2L-101.7,452.2z M-123.1,539l-21.5-12.4
	l-21.5-12.4h0l-21.5,12.4L-209,539v-74.4l21.5-12.4h0l21.5-12.4l21.5,12.4l21.5,12.4V539z"/>
<g>
	<linearGradient id="SVGID_2_" gradientUnits="userSpaceOnUse" x1="0.25" y1="600" x2="945.0649" y2="600">
		<stop  offset="0" style="stop-color:#FF5B9D"/>
		<stop  offset="0.9997" style="stop-color:#7C0EFF"/>
	</linearGradient>
	<path class="st1" d="M850.6,218.2l-94.5-54.5l-94.4-54.5h0l-94.4-54.5L472.7,0l-94.5,54.5l-94.4,54.5l-94.5,54.5l-94.5,54.5
		L0.3,272.7h0v654.6l94.5,54.5v0l94.5,54.5l94.5,54.5v0l94.4,54.5l94.5,54.5l94.4-54.5h0l94.4-54.5h0.1v0l94.4-54.5h0l94.4-54.5h0
		l94.4-54.5h0V818.2l0,0h0V272.7L850.6,218.2z M850.6,872.8L850.6,872.8l-94.5,54.5h0l-94.4,54.5v0h-0.1l-94.4,54.5v0h0l-94.4,54.5
		l-94.4-54.5h0l-94.4-54.5l-94.5-54.5l-94.5-54.5V327.3h0l94.4-54.5l94.5-54.5l94.4-54.5v0l94.5-54.5l94.5,54.5l94.4,54.5h0
		l94.4,54.5l94.5,54.5V872.8z"/>
	<linearGradient id="SVGID_3_" gradientUnits="userSpaceOnUse" x1="378.167" y1="518.2009" x2="567.1476" y2="518.2009">
		<stop  offset="0" style="stop-color:#FF5B9D"/>
		<stop  offset="0.9997" style="stop-color:#7C0EFF"/>
	</linearGradient>
	<polygon class="st2" points="567.1,490.9 567.1,600 472.7,545.5 378.2,600 378.2,490.9 472.7,436.4 	"/>
	<linearGradient id="SVGID_4_" gradientUnits="userSpaceOnUse" x1="378.167" y1="790.9382" x2="567.1476" y2="790.9382">
		<stop  offset="0" style="stop-color:#FF5B9D"/>
		<stop  offset="0.9997" style="stop-color:#7C0EFF"/>
	</linearGradient>
	<polygon class="st3" points="567.1,709.1 567.1,818.2 472.7,872.8 378.2,818.2 378.2,709.1 472.7,763.7 	"/>
	<linearGradient id="SVGID_5_" gradientUnits="userSpaceOnUse" x1="189.2307" y1="518.2008" x2="756.0842" y2="518.2008">
		<stop  offset="0" style="stop-color:#FF5B9D"/>
		<stop  offset="0.9997" style="stop-color:#7C0EFF"/>
	</linearGradient>
	<polygon class="st4" points="756.1,381.8 756.1,818.2 661.6,763.7 661.6,436.4 567.1,381.8 472.7,327.3 378.2,381.8 283.7,436.4 
		283.7,763.7 283.7,763.7 189.2,818.2 189.2,381.8 283.7,327.3 378.2,272.7 472.7,218.2 567.1,272.7 661.6,327.3 661.6,327.3 	"/>
</g>
</svg>
